<svg width="13" height="13" viewBox="0 0 14 14" fill="none" xmlns="http://www.w3.org/2000/svg">
<path id="Mask" fill-rule="evenodd" clip-rule="evenodd" d="M8.80483 7.86192C9.0655 8.12259 9.0655 8.54392 8.80483 8.80459C8.67483 8.93459 8.50416 8.99992 8.3335 8.99992C8.16283 8.99992 7.99216 8.93459 7.86216 8.80459L7.00016 7.94258L6.13816 8.80459C6.00816 8.93459 5.8375 8.99992 5.66683 8.99992C5.49616 8.99992 5.3255 8.93459 5.1955 8.80459C4.93483 8.54392 4.93483 8.12259 5.1955 7.86192L6.0575 6.99992L5.1955 6.13792C4.93483 5.87725 4.93483 5.45592 5.1955 5.19525C5.45616 4.93459 5.8775 4.93459 6.13816 5.19525L7.00016 6.05725L7.86216 5.19525C8.12283 4.93459 8.54416 4.93459 8.80483 5.19525C9.0655 5.45592 9.0655 5.87725 8.80483 6.13792L7.94283 6.99992L8.80483 7.86192ZM7.00016 0.333252C3.32416 0.333252 0.333496 3.32392 0.333496 6.99992C0.333496 10.6759 3.32416 13.6666 7.00016 13.6666C10.6762 13.6666 13.6668 10.6759 13.6668 6.99992C13.6668 3.32392 10.6762 0.333252 7.00016 0.333252Z" fill="#F2431C"/>
</svg>
