<svg width="13" height="13" viewBox="0 0 14 14" fill="none" xmlns="http://www.w3.org/2000/svg">
<path id="Mask" fill-rule="evenodd" clip-rule="evenodd" d="M9.8635 5.40374L6.81816 9.40374C6.69283 9.56841 6.49883 9.66574 6.29216 9.66707H6.2875C6.08283 9.66707 5.8895 9.57241 5.76283 9.41107L4.1415 7.33974C3.91483 7.05041 3.9655 6.63107 4.2555 6.40441C4.54483 6.17707 4.96483 6.22774 5.1915 6.51841L6.28016 7.90907L8.80283 4.59641C9.0255 4.30374 9.4435 4.24641 9.7375 4.46974C10.0302 4.69307 10.0868 5.11107 9.8635 5.40374ZM7.00016 0.33374C3.31816 0.33374 0.333496 3.31841 0.333496 7.00041C0.333496 10.6817 3.31816 13.6671 7.00016 13.6671C10.6822 13.6671 13.6668 10.6817 13.6668 7.00041C13.6668 3.31841 10.6822 0.33374 7.00016 0.33374Z" fill="#04AF00"/>
</svg>

